<svg width="0" height="0" class="hidden">
  <symbol xmlns="http://www.w3.org/2000/svg" viewBox="0 0 20 20" id="home">
    <path d="M8.66667 3.66667V5.17333L10 6.06V5H16.6667V15H13.3333V16.3333H18V3.66667H8.66667ZM7 5.66667L2 9V16.3333H12V9L7 5.66667ZM11.3333 6.33333V6.95333L12.4067 7.66667H12.6667V6.33333H11.3333ZM14 6.33333V7.66667H15.3333V6.33333H14ZM7 7.33333L10.6667 9.66667V15H8.66667V11H5.33333V15H3.33333V9.66667L7 7.33333ZM14 9V10.3333H15.3333V9H14ZM14 11.6667V13H15.3333V11.6667H14Z"></path>
  </symbol>
  <symbol xmlns="http://www.w3.org/2000/svg" viewBox="0 0 20 20" id="mark-address">
    <path d="M10 5.41667C10.5525 5.41667 11.0824 5.63616 11.4731 6.02686C11.8638 6.41756 12.0833 6.94747 12.0833 7.5C12.0833 7.77359 12.0294 8.0445 11.9247 8.29726C11.8201 8.55002 11.6666 8.77968 11.4731 8.97314C11.2797 9.16659 11.05 9.32005 10.7973 9.42475C10.5445 9.52945 10.2736 9.58333 10 9.58333C9.44747 9.58333 8.91756 9.36384 8.52686 8.97314C8.13616 8.58244 7.91667 8.05253 7.91667 7.5C7.91667 6.94747 8.13616 6.41756 8.52686 6.02686C8.91756 5.63616 9.44747 5.41667 10 5.41667ZM10 1.66667C11.5471 1.66667 13.0308 2.28125 14.1248 3.37521C15.2188 4.46917 15.8333 5.9529 15.8333 7.5C15.8333 11.875 10 18.3333 10 18.3333C10 18.3333 4.16667 11.875 4.16667 7.5C4.16667 5.9529 4.78125 4.46917 5.87521 3.37521C6.96917 2.28125 8.4529 1.66667 10 1.66667ZM10 3.33333C8.89493 3.33333 7.83512 3.77232 7.05372 4.55372C6.27232 5.33512 5.83333 6.39493 5.83333 7.5C5.83333 8.33333 5.83333 10 10 15.5917C14.1667 10 14.1667 8.33333 14.1667 7.5C14.1667 6.39493 13.7277 5.33512 12.9463 4.55372C12.1649 3.77232 11.1051 3.33333 10 3.33333Z"></path>
  </symbol>
  <symbol xmlns="http://www.w3.org/2000/svg" viewBox="0 0 20 20" id="search">
    <path fill-rule="evenodd" clip-rule="evenodd" d="M14.1635 8.88545C14.1635 11.8004 11.8004 14.1635 8.88545 14.1635C5.97052 14.1635 3.60749 11.8004 3.60749 8.88545C3.60749 5.97052 5.97052 3.60749 8.88545 3.60749C11.8004 3.60749 14.1635 5.97052 14.1635 8.88545ZM14.3965 13.0139C15.2596 11.8635 15.7709 10.4342 15.7709 8.88545C15.7709 5.08273 12.6882 2 8.88545 2C5.08273 2 2 5.08273 2 8.88545C2 12.6882 5.08273 15.7709 8.88545 15.7709C10.4342 15.7709 11.8635 15.2596 13.0139 14.3965C13.0541 14.4617 13.1025 14.5234 13.1591 14.5799L16.2849 17.7057C16.6772 18.0981 17.3134 18.0981 17.7057 17.7057C18.0981 17.3134 18.0981 16.6772 17.7057 16.2849L14.58 13.1591C14.5234 13.1025 14.4617 13.0541 14.3965 13.0139Z"></path>
  </symbol>
  <symbol xmlns="http://www.w3.org/2000/svg" viewBox="0 0 20 20" id="arrow-type-1">
    <path fill-rule="evenodd" clip-rule="evenodd" d="M14.7688 7.3365C15.0771 7.64485 15.0771 8.14464 14.7688 8.45296L10.5582 12.6635C10.2499 12.9718 9.75009 12.9718 9.44178 12.6635L5.23124 8.45295C4.92292 8.14464 4.92292 7.64485 5.23124 7.3365C5.53955 7.02819 6.03935 7.02819 6.34766 7.3365L9.99999 10.9888L13.6523 7.3365C13.9606 7.02819 14.4605 7.02819 14.7688 7.3365Z"></path>
  </symbol>
  <symbol xmlns="http://www.w3.org/2000/svg" viewBox="0 0 20 20" id="arrow-type-2">
    <path d="M10 12.0833L5.83333 7.91667H14.1667L10 12.0833Z"></path>
  </symbol>
  <symbol xmlns="http://www.w3.org/2000/svg" viewBox="0 0 20 20" id="filter-type-1">
    <path d="M2.5 15V13.3333H7.5V15H2.5ZM2.5 10.8333V9.16667H12.5V10.8333H2.5ZM2.5 6.66667V5H17.5V6.66667H2.5Z"></path>
  </symbol>
</svg>