<svg width="20" height="20" viewBox="0 0 20 20" xmlns="http://www.w3.org/2000/svg"><path fill-rule="evenodd" clip-rule="evenodd" d="M14.1635 8.88545C14.1635 11.8004 11.8004 14.1635 8.88545 14.1635C5.97052 14.1635 3.60749 11.8004 3.60749 8.88545C3.60749 5.97052 5.97052 3.60749 8.88545 3.60749C11.8004 3.60749 14.1635 5.97052 14.1635 8.88545ZM14.3965 13.0139C15.2596 11.8635 15.7709 10.4342 15.7709 8.88545C15.7709 5.08273 12.6882 2 8.88545 2C5.08273 2 2 5.08273 2 8.88545C2 12.6882 5.08273 15.7709 8.88545 15.7709C10.4342 15.7709 11.8635 15.2596 13.0139 14.3965C13.0541 14.4617 13.1025 14.5234 13.1591 14.5799L16.2849 17.7057C16.6772 18.0981 17.3134 18.0981 17.7057 17.7057C18.0981 17.3134 18.0981 16.6772 17.7057 16.2849L14.58 13.1591C14.5234 13.1025 14.4617 13.0541 14.3965 13.0139Z"/></svg>