<svg width="20" height="20" viewBox="0 0 20 20" xmlns="http://www.w3.org/2000/svg"><path d="M10 5.41667C10.5525 5.41667 11.0824 5.63616 11.4731 6.02686C11.8638 6.41756 12.0833 6.94747 12.0833 7.5C12.0833 7.77359 12.0294 8.0445 11.9247 8.29726C11.8201 8.55002 11.6666 8.77968 11.4731 8.97314C11.2797 9.16659 11.05 9.32005 10.7973 9.42475C10.5445 9.52945 10.2736 9.58333 10 9.58333C9.44747 9.58333 8.91756 9.36384 8.52686 8.97314C8.13616 8.58244 7.91667 8.05253 7.91667 7.5C7.91667 6.94747 8.13616 6.41756 8.52686 6.02686C8.91756 5.63616 9.44747 5.41667 10 5.41667ZM10 1.66667C11.5471 1.66667 13.0308 2.28125 14.1248 3.37521C15.2188 4.46917 15.8333 5.9529 15.8333 7.5C15.8333 11.875 10 18.3333 10 18.3333C10 18.3333 4.16667 11.875 4.16667 7.5C4.16667 5.9529 4.78125 4.46917 5.87521 3.37521C6.96917 2.28125 8.4529 1.66667 10 1.66667ZM10 3.33333C8.89493 3.33333 7.83512 3.77232 7.05372 4.55372C6.27232 5.33512 5.83333 6.39493 5.83333 7.5C5.83333 8.33333 5.83333 10 10 15.5917C14.1667 10 14.1667 8.33333 14.1667 7.5C14.1667 6.39493 13.7277 5.33512 12.9463 4.55372C12.1649 3.77232 11.1051 3.33333 10 3.33333Z"/></svg>